<svg width="96" height="114" fill="none" xmlns="http://www.w3.org/2000/svg"><g filter="url('#a')"><mask id="d" fill="#fff"><path fill-rule="evenodd" clip-rule="evenodd" d="M38.473 34.543c.863-.14 1.384.876.92 1.614a14.782 14.782 0 0 0-.604 14.69c3.324 6.416 10.68 9.422 17.388 7.52.84-.238 1.676.543 1.302 1.329a17.622 17.622 0 0 1-7.928 8.133c-8.746 4.466-19.496 1.023-24.01-7.691-4.514-8.715-1.084-19.4 7.662-23.867a17.827 17.827 0 0 1 5.27-1.728Z"/></mask><path fill-rule="evenodd" clip-rule="evenodd" d="M38.473 34.543c.863-.14 1.384.876.92 1.614a14.782 14.782 0 0 0-.604 14.69c3.324 6.416 10.68 9.422 17.388 7.52.84-.238 1.676.543 1.302 1.329a17.622 17.622 0 0 1-7.928 8.133c-8.746 4.466-19.496 1.023-24.01-7.691-4.514-8.715-1.084-19.4 7.662-23.867a17.827 17.827 0 0 1 5.27-1.728Z" fill="url('#b')"/><path d="m38.79 50.847-1.781.911 1.78-.911Zm10.76 16.982-.918-1.777.918 1.776Zm-24.01-7.691 1.78-.912-1.78.912Zm7.662-23.867.918 1.777-.918-1.777Zm22.974 22.096.554 1.92-.554-1.92Zm1.302 1.329-1.811-.86 1.81.86Zm-16.91-9.76a12.794 12.794 0 0 1 .525-12.718l-3.4-2.123a16.77 16.77 0 0 0-.685 16.663l3.56-1.822Zm15.054 6.511c-5.808 1.647-12.177-.96-15.053-6.511l-3.561 1.822c3.771 7.28 12.114 10.686 19.722 8.53l-1.108-3.84Zm.045 2.389a15.63 15.63 0 0 1-7.035 7.216l1.836 3.553a19.613 19.613 0 0 0 8.82-9.049l-3.621-1.72Zm-7.035 7.216c-7.764 3.965-17.306.907-21.312-6.826l-3.56 1.823c5.023 9.696 16.98 13.524 26.708 8.556l-1.836-3.553ZM27.32 59.226c-4.005-7.731-.962-17.214 6.8-21.178l-1.836-3.554c-9.73 4.97-13.547 16.858-8.524 26.555l3.56-1.823Zm6.8-21.178a15.823 15.823 0 0 1 4.679-1.535l-.653-3.94a19.83 19.83 0 0 0-5.862 1.921l1.837 3.554Zm22.61 22.24a.876.876 0 0 1-.856-.225 1.106 1.106 0 0 1-.207-1.227l3.621 1.72c.603-1.265.187-2.55-.597-3.324a3.151 3.151 0 0 0-3.069-.785l1.108 3.84Zm-15.637-23.07c.639-1.017.6-2.228.094-3.15-.528-.964-1.653-1.72-3.041-1.495l.653 3.94c-.216.035-.468 0-.698-.122a1.052 1.052 0 0 1-.43-.417.865.865 0 0 1 .022-.88l3.4 2.124Z" fill="url('#c')" mask="url('#d')"/></g><g filter="url('#e')"><mask id="h" fill="#fff"><path fill-rule="evenodd" clip-rule="evenodd" d="M38.814 83.062h.1c4.74 0 8.581-3.819 8.581-8.53 0-4.71-3.842-8.53-8.58-8.53l-.1.001h-2.218c.08-.584.122-1.18.122-1.786 0-7.23-5.897-13.092-13.171-13.092-7.274 0-13.171 5.862-13.171 13.092 0 .683.053 1.353.154 2.007a8.655 8.655 0 0 0-1.95-.221c-4.74 0-8.581 3.819-8.581 8.53 0 4.71 3.842 8.53 8.581 8.53l.1-.001h30.133Z"/></mask><path fill-rule="evenodd" clip-rule="evenodd" d="M38.814 83.062h.1c4.74 0 8.581-3.819 8.581-8.53 0-4.71-3.842-8.53-8.58-8.53l-.1.001h-2.218c.08-.584.122-1.18.122-1.786 0-7.23-5.897-13.092-13.171-13.092-7.274 0-13.171 5.862-13.171 13.092 0 .683.053 1.353.154 2.007a8.655 8.655 0 0 0-1.95-.221c-4.74 0-8.581 3.819-8.581 8.53 0 4.71 3.842 8.53 8.581 8.53l.1-.001h30.133Z" fill="url('#f')"/><path d="m38.814 83.062.023-2a2 2 0 0 0-2.023 2h2Zm0-17.059h-2a2 2 0 0 0 2.023 2l-.023-2Zm0 0h2a2 2 0 0 0-2-2v2Zm-2.217 0-1.981-.272a2 2 0 0 0 1.981 2.272v-2Zm-26.066.22-.45 1.95a2 2 0 0 0 2.426-2.255l-1.976.306ZM8.68 83.063l1.567 1.243a2 2 0 0 0-1.59-3.243l.023 2Zm0 0L7.114 81.82a2 2 0 0 0 1.567 3.243v-2Zm30.133 0v2a2 2 0 0 0 2-2h-2Zm-.023 2h.123v-4h-.077l-.046 4Zm.123 0c5.832 0 10.581-4.703 10.581-10.53h-4c0 3.596-2.935 6.53-6.58 6.53v4Zm10.581-10.53c0-5.826-4.748-10.53-10.58-10.53v4c3.645 0 6.58 2.936 6.58 6.53h4Zm-10.58-10.53-.124.001.046 4h.077v-4Zm-2.1 2v.001h4-4Zm-.218 2h2.217v-4h-2.217v4Zm1.982-1.727a15.2 15.2 0 0 0 .14-2.058h-4c0 .515-.035 1.02-.103 1.514l3.963.544Zm.14-2.058c0-8.346-6.804-15.092-15.171-15.092v4c6.18 0 11.17 4.977 11.17 11.092h4Zm-15.17-15.093c-8.367 0-15.171 6.746-15.171 15.092h4c0-6.115 4.99-11.092 11.17-11.092v-4ZM8.377 64.217c0 .785.06 1.558.177 2.313l3.953-.612a11.12 11.12 0 0 1-.13-1.7h-4Zm2.604.058a10.657 10.657 0 0 0-2.4-.272v4c.518 0 1.02.059 1.5.17l.9-3.898Zm-2.4-.272C2.749 64.003-2 68.706-2 74.533h4c0-3.596 2.935-6.53 6.581-6.53v-4ZM-2 74.533c0 5.826 4.749 10.53 10.581 10.53v-4C4.935 81.063 2 78.127 2 74.532h-4Zm10.581 10.53.123-.001-.046-4h-.077v4Zm1.666-.757-3.132-2.487 3.132 2.487Zm28.567-3.243H8.681v4h30.133v-4Zm-2 1.999h4-4Z" fill="url('#g')" mask="url('#h')"/></g><defs><linearGradient id="b" x1="29.815" y1="38.355" x2="45.995" y2="69.999" gradientUnits="userSpaceOnUse"><stop offset="0" stop-color="#D4C0FF"/><stop offset="1" stop-color="#7E2FFF"/></linearGradient><linearGradient id="c" x1="31.523" y1="21.035" x2="41.484" y2="62.489" gradientUnits="userSpaceOnUse"><stop stop-color="#fff"/><stop offset="1" stop-color="#fff" stop-opacity="0"/></linearGradient><linearGradient id="f" x1="25.957" y1="52.086" x2="25.957" y2="86.671" gradientUnits="userSpaceOnUse"><stop stop-color="#fff"/><stop offset="1" stop-color="#fff" stop-opacity="0"/></linearGradient><linearGradient id="g" x1="23.747" y1="51.125" x2="23.747" y2="83.062" gradientUnits="userSpaceOnUse"><stop stop-color="#fff"/><stop offset="1" stop-color="#fff" stop-opacity="0"/></linearGradient><filter id="a" x="-47.448" y="-3.47" width="143.018" height="138.254" filterUnits="userSpaceOnUse" color-interpolation-filters="sRGB"><feFlood flood-opacity="0" result="BackgroundImageFix"/><feGaussianBlur in="BackgroundImageFix" stdDeviation="7"/><feComposite in2="SourceAlpha" operator="in" result="effect1_backgroundBlur_7_748"/><feColorMatrix in="SourceAlpha" values="0 0 0 0 0 0 0 0 0 0 0 0 0 0 0 0 0 0 127 0" result="hardAlpha"/><feOffset dx="-21" dy="15"/><feGaussianBlur stdDeviation="25"/><feComposite in2="hardAlpha" operator="out"/><feColorMatrix values="0 0 0 0 0.113438 0 0 0 0 0.148981 0 0 0 0 0.275 0 0 0 0.25 0"/><feBlend in2="effect1_backgroundBlur_7_748" result="effect2_dropShadow_7_748"/><feColorMatrix in="SourceAlpha" values="0 0 0 0 0 0 0 0 0 0 0 0 0 0 0 0 0 0 127 0" result="hardAlpha"/><feOffset/><feGaussianBlur stdDeviation="19"/><feComposite in2="hardAlpha" operator="out"/><feColorMatrix values="0 0 0 0 0.619608 0 0 0 0 0.423529 0 0 0 0 1 0 0 0 0.4 0"/><feBlend in2="effect2_dropShadow_7_748" result="effect3_dropShadow_7_748"/><feBlend in="SourceGraphic" in2="effect3_dropShadow_7_748" result="shape"/></filter><filter id="e" x="-14" y="37.125" width="75.495" height="59.938" filterUnits="userSpaceOnUse" color-interpolation-filters="sRGB"><feFlood flood-opacity="0" result="BackgroundImageFix"/><feGaussianBlur in="BackgroundImageFix" stdDeviation="7"/><feComposite in2="SourceAlpha" operator="in" result="effect1_backgroundBlur_7_748"/><feBlend in="SourceGraphic" in2="effect1_backgroundBlur_7_748" result="shape"/></filter></defs></svg>