<svg aria-hidden="true" style="width:0;height:0;position:absolute;overflow:hidden" xmlns="http://www.w3.org/2000/svg"><defs><symbol id="geo_icon" viewBox="0 0 24 32"><path fill="#3893e4" style="fill:var(--color1,#3893e4)" d="M13.48 31.2C16.689 27.187 24 17.463 24 12c0-6.625-5.375-12-12-12S0 5.375 0 12c0 5.463 7.312 15.187 10.52 19.2a1.886 1.886 0 0 0 2.957.004l.003-.004zM12 16c-2.207 0-4-1.793-4-4s1.793-4 4-4 4 1.793 4 4-1.793 4-4 4z"/></symbol><symbol id="icon-liquid" viewBox="0 0 32 32"><path fill="#273a58" style="fill:var(--color1,#273a58)" opacity=".35" d="M16 28.667c-2.956 0-5.472-1.028-7.549-3.083-2.078-2.056-3.117-4.54-3.117-7.451 0-1.467.272-2.828.817-4.084s1.316-2.36 2.316-3.316L16 3.333l7.533 7.4c1 .956 1.773 2.061 2.317 3.316s.816 2.617.816 4.084c0 2.911-1.039 5.395-3.116 7.451-2.078 2.055-4.595 3.083-7.551 3.083zM16 26c2.222 0 4.111-.772 5.667-2.317C23.223 22.139 24 20.289 24 18.134c0-1.067-.195-2.061-.584-2.984s-.972-1.749-1.75-2.483l-5.667-5.6-5.667 5.6c-.778.733-1.361 1.561-1.749 2.483s-.584 1.917-.584 2.984c0 2.156.778 4.005 2.333 5.549C11.888 25.228 13.776 26 15.999 26z"/></symbol><symbol id="icon-visibl" viewBox="0 0 32 32"><path fill="#273a58" style="fill:var(--color1,#273a58)" opacity=".35" d="M16 21.333c1.667 0 3.084-.583 4.251-1.749S22 17 22 15.333s-.583-3.084-1.749-4.251C19.084 9.916 17.667 9.333 16 9.333s-3.084.583-4.251 1.749C10.583 12.249 10 13.666 10 15.333s.583 3.084 1.749 4.251c1.167 1.166 2.584 1.749 4.251 1.749zm0-2.4c-1 0-1.85-.35-2.549-1.051S12.4 16.333 12.4 15.333s.35-1.85 1.051-2.551c.7-.7 1.549-1.049 2.549-1.049s1.85.35 2.551 1.049c.7.7 1.049 1.551 1.049 2.551s-.35 1.85-1.049 2.549c-.7.7-1.551 1.051-2.551 1.051zm0 6.4c-3.244 0-6.2-.906-8.867-2.717-2.667-1.811-4.6-4.238-5.8-7.283 1.2-3.044 3.133-5.472 5.8-7.284S12.755 5.333 16 5.333s6.2.905 8.867 2.716c2.667 1.812 4.6 4.24 5.8 7.284-1.2 3.044-3.133 5.472-5.8 7.283-2.667 1.812-5.622 2.717-8.867 2.717zm0-2.666c2.511 0 4.817-.661 6.917-1.984s3.705-3.105 4.816-5.349c-1.111-2.244-2.716-4.028-4.816-5.351S18.511 8 16 8s-4.817.661-6.917 1.983c-2.1 1.323-3.705 3.106-4.816 5.351 1.111 2.244 2.716 4.028 4.816 5.349s4.406 1.984 6.917 1.984z"/></symbol><symbol id="icon-temp" viewBox="0 0 32 32"><path fill="#273a58" style="fill:var(--color1,#273a58)" opacity=".35" d="M19 25a2.999 2.999 0 0 1-5.753 1.19c-.218-.505-.294-1.06-.218-1.604s.3-1.058.647-1.484.806-.748 1.324-.932V13a.997.997 0 0 1 1-1 .997.997 0 0 1 1 1v9.17A3 3 0 0 1 19 25z"/><path fill="#273a58" style="fill:var(--color1,#273a58)" opacity=".35" d="M11 5a4.997 4.997 0 0 1 5-5 4.997 4.997 0 0 1 5 5v15.1a7.003 7.003 0 0 1-1.125 10.73 7 7 0 0 1-8.873-10.73V5zm5-3a3.004 3.004 0 0 0-3 3v15.974l-.334.3a4.999 4.999 0 0 0 6.169 7.845 4.994 4.994 0 0 0 2.023-5.298 4.999 4.999 0 0 0-1.526-2.547l-.332-.3V5a3.004 3.004 0 0 0-3-3z"/></symbol><symbol id="icon-wind" viewBox="0 0 32 32"><path fill="#273a58" style="fill:var(--color1,#273a58)" opacity=".35" d="M17.538 6A5.39 5.39 0 0 0 12.153.615c-3.129 0-5 2.346-5 4.615h3.077c0-.638.597-1.538 1.923-1.538 1.272 0 2.308 1.035 2.308 2.308s-1.035 2.308-2.308 2.308H.615v3.077h11.538A5.39 5.39 0 0 0 17.538 6zm3.847 14.615H9.847v3.077h11.538c1.272 0 2.308 1.035 2.308 2.308s-1.035 2.308-2.308 2.308c-1.326 0-1.923-.9-1.923-1.538h-3.077c0 2.269 1.871 4.615 5 4.615 2.969 0 5.385-2.416 5.385-5.385s-2.415-5.385-5.385-5.385z"/><path fill="#273a58" style="fill:var(--color1,#273a58)" opacity=".35" d="M25.231 5.231a6.16 6.16 0 0 0-6.154 6.154h3.077c0-1.697 1.38-3.077 3.077-3.077s3.077 1.38 3.077 3.077-1.38 3.077-3.077 3.077H.616v3.077h24.615c3.394 0 6.154-2.76 6.154-6.154s-2.76-6.154-6.154-6.154zM.615 20.615h6.154v3.077H.615v-3.077z"/></symbol><symbol id="icon-search" viewBox="0 0 32 32"><path d="M13.867 3.2C7.989 3.2 3.2 7.988 3.2 13.867s4.788 10.667 10.667 10.667c2.556 0 4.904-.908 6.744-2.415l6.369 6.369a1.067 1.067 0 1 0 1.509-1.508l-6.369-6.369a10.61 10.61 0 0 0 2.415-6.744c0-5.878-4.788-10.667-10.667-10.667zm0 2.133c4.725 0 8.533 3.808 8.533 8.533s-3.808 8.533-8.533 8.533-8.533-3.808-8.533-8.533 3.808-8.533 8.533-8.533z"/></symbol></defs></svg>