<svg width="180" height="180" fill="none" xmlns="http://www.w3.org/2000/svg"><g clip-path="url('#clip0_20_694')"><g filter="url('#filter0_f_20_694')"><ellipse cx="64.115" cy="71.132" rx="45.114" ry="45.133" fill="#FFC701" fill-opacity=".5"/></g><path d="M106.75 72.612c0 23.557-19.089 42.653-42.635 42.653-23.547 0-42.636-19.096-42.636-42.653 0-23.556 19.089-42.652 42.636-42.652 23.546 0 42.635 19.096 42.635 42.652Z" fill="url('#paint0_linear_20_694')" stroke="url('#paint1_linear_20_694')" stroke-width="2"/><mask id="mask0_20_694" style="mask-type:alpha" maskUnits="userSpaceOnUse" x="20" y="53" width="88" height="64"><path d="M107.75 72.612c0 24.109-19.536 43.653-43.635 43.653-24.1 0-43.636-19.544-43.636-43.653 0-24.108 16.208-18.497 40.307-18.497 24.1 0 46.964-5.611 46.964 18.497Z" fill="url('#paint2_linear_20_694')"/></mask><g filter="url('#filter1_f_20_694')" mask="url('#mask0_20_694')"><path fill-rule="evenodd" clip-rule="evenodd" d="M130.677 152.519c0 17.571-14.238 31.815-31.802 31.815l-.37-.002v.002H-13.172l.001-.002c-.123.002-.247.002-.37.002-17.565 0-31.803-14.243-31.803-31.814 0-17.571 14.239-31.815 31.802-31.815 15.14 0 27.808 10.583 31.017 24.757l10.77-13.66 33.651-11.098h36.61v.002l.37-.002c17.563 0 31.801 14.244 31.801 31.815Z" fill="#E18700"/></g><g filter="url('#filter2_bd_20_694')"><mask id="path-5-inside-1_20_694" fill="#fff"><path fill-rule="evenodd" clip-rule="evenodd" d="m137.749 154.998.268.002C150.71 155 161 144.706 161 132.008s-10.29-22.992-22.983-22.992l-.268.001v-.001h-5.937c.215-1.574.325-3.181.325-4.813 0-19.49-15.793-35.29-35.276-35.29-19.482 0-35.276 15.8-35.276 35.29 0 1.839.14 3.645.412 5.409a23.04 23.04 0 0 0-5.222-.596c-12.694 0-22.983 10.294-22.983 22.992S44.082 155 56.775 155l.268-.002-.002.002h80.708v-.002Z"/></mask><path fill-rule="evenodd" clip-rule="evenodd" d="m137.749 154.998.268.002C150.71 155 161 144.706 161 132.008s-10.29-22.992-22.983-22.992l-.268.001v-.001h-5.937c.215-1.574.325-3.181.325-4.813 0-19.49-15.793-35.29-35.276-35.29-19.482 0-35.276 15.8-35.276 35.29 0 1.839.14 3.645.412 5.409a23.04 23.04 0 0 0-5.222-.596c-12.694 0-22.983 10.294-22.983 22.992S44.082 155 56.775 155l.268-.002-.002.002h80.708v-.002Z" fill="url('#paint3_linear_20_694')" shape-rendering="crispEdges"/><path d="m137.749 154.998.023-1.999a2 2 0 0 0-2.023 1.999h2Zm0-45.981h-2a1.997 1.997 0 0 0 2.023 2l-.023-2Zm0-.001h2a2 2 0 0 0-2-2v2Zm-5.937 0-1.981-.27a2.002 2.002 0 0 0 1.981 2.27v-2Zm-69.815.596-.453 1.948a2 2 0 0 0 2.43-2.252l-1.977.304Zm-4.954 45.386 1.571 1.238a2 2 0 0 0-1.594-3.237l.023 1.999Zm-.002.002-1.571-1.237A2 2 0 0 0 57.041 157v-2Zm80.708 0v2a2 2 0 0 0 2-2h-2Zm-.023 1.998.291.002v-4l-.245-.001-.046 3.999Zm.291.002C151.815 157 163 145.81 163 132.008h-4c0 11.594-9.395 20.992-20.983 20.992v4ZM163 132.008c0-13.802-11.185-24.992-24.983-24.992v4c11.588 0 20.983 9.397 20.983 20.992h4Zm-24.983-24.992-.291.001.046 4 .245-.001v-4Zm-2.268 2v.001h4v-.001h-4Zm-3.937 2h5.937v-4h-5.937v4Zm1.982-1.73c.227-1.663.343-3.36.343-5.083h-4c0 1.542-.104 3.058-.306 4.543l3.963.54Zm.343-5.083c0-20.594-16.688-37.29-37.276-37.29v4c18.377 0 33.276 14.904 33.276 33.29h4Zm-37.276-37.29c-20.588 0-37.276 16.696-37.276 37.29h4c0-18.386 14.899-33.29 33.276-33.29v-4Zm-37.276 37.29c0 1.941.148 3.849.435 5.713l3.953-.608a33.59 33.59 0 0 1-.388-5.105h-4Zm2.864 3.461a24.997 24.997 0 0 0-5.674-.648v4c1.642 0 3.239.188 4.769.544l.905-3.896Zm-5.674-.648c-13.799 0-24.983 11.19-24.983 24.992h4c0-11.595 9.395-20.992 20.983-20.992v-4Zm-24.983 24.992C31.792 145.81 42.976 157 56.775 157v-4c-11.588 0-20.983-9.398-20.983-20.992h-4ZM56.775 157l.29-.002-.045-3.999-.245.001v4Zm1.838-.763.001-.001-3.143-2.475-.001.002 3.143 2.474ZM137.749 153H57.041v4h80.708v-4Zm-2 1.998V155h4v-.002h-4Z" fill="url('#paint4_linear_20_694')" mask="url('#path-5-inside-1_20_694')"/></g></g><defs><linearGradient id="paint0_linear_20_694" x1="64.115" y1="28.959" x2="64.115" y2="116.265" gradientUnits="userSpaceOnUse"><stop stop-color="#FFE600"/><stop offset="1" stop-color="#FF7A00"/></linearGradient><linearGradient id="paint1_linear_20_694" x1="64.115" y1="28.959" x2="64.115" y2="116.265" gradientUnits="userSpaceOnUse"><stop stop-color="#fff"/><stop offset="1" stop-color="#fff" stop-opacity="0"/></linearGradient><linearGradient id="paint2_linear_20_694" x1="64.115" y1="28.959" x2="64.115" y2="116.265" gradientUnits="userSpaceOnUse"><stop stop-color="#FFD600"/><stop offset="1" stop-color="#FF7A00"/></linearGradient><linearGradient id="paint3_linear_20_694" x1="103.312" y1="71.502" x2="103.313" y2="164.727" gradientUnits="userSpaceOnUse"><stop stop-color="#fff"/><stop offset="1" stop-color="#fff" stop-opacity="0"/></linearGradient><linearGradient id="paint4_linear_20_694" x1="97.396" y1="68.913" x2="97.396" y2="155" gradientUnits="userSpaceOnUse"><stop stop-color="#fff"/><stop offset="1" stop-color="#fff" stop-opacity="0"/></linearGradient><filter id="filter0_f_20_694" x="-11" y="-4" width="150.229" height="150.265" filterUnits="userSpaceOnUse" color-interpolation-filters="sRGB"><feFlood flood-opacity="0" result="BackgroundImageFix"/><feBlend in="SourceGraphic" in2="BackgroundImageFix" result="shape"/><feGaussianBlur stdDeviation="15" result="effect1_foregroundBlur_20_694"/></filter><filter id="filter1_f_20_694" x="-59.344" y="106.704" width="204.021" height="91.63" filterUnits="userSpaceOnUse" color-interpolation-filters="sRGB"><feFlood flood-opacity="0" result="BackgroundImageFix"/><feBlend in="SourceGraphic" in2="BackgroundImageFix" result="shape"/><feGaussianBlur stdDeviation="7" result="effect1_foregroundBlur_20_694"/></filter><filter id="filter2_bd_20_694" x="8.792" y="54.913" width="167.208" height="133.087" filterUnits="userSpaceOnUse" color-interpolation-filters="sRGB"><feFlood flood-opacity="0" result="BackgroundImageFix"/><feGaussianBlur in="BackgroundImageFix" stdDeviation="7"/><feComposite in2="SourceAlpha" operator="in" result="effect1_backgroundBlur_20_694"/><feColorMatrix in="SourceAlpha" values="0 0 0 0 0 0 0 0 0 0 0 0 0 0 0 0 0 0 127 0" result="hardAlpha"/><feOffset dx="-5" dy="13"/><feGaussianBlur stdDeviation="10"/><feComposite in2="hardAlpha" operator="out"/><feColorMatrix values="0 0 0 0 0.113438 0 0 0 0 0.148981 0 0 0 0 0.275 0 0 0 0.09 0"/><feBlend in2="effect1_backgroundBlur_20_694" result="effect2_dropShadow_20_694"/><feBlend in="SourceGraphic" in2="effect2_dropShadow_20_694" result="shape"/></filter><clipPath id="clip0_20_694"><path fill="#fff" d="M0 0h180v180H0z"/></clipPath></defs></svg>