<svg width="15" height="15" viewBox="0 0 15 15" fill="none" xmlns="http://www.w3.org/2000/svg">
<path d="M7.5 10C8.28125 10 8.94542 9.72667 9.4925 9.18C10.0392 8.63292 10.3125 7.96875 10.3125 7.1875C10.3125 6.40625 10.0392 5.74208 9.4925 5.195C8.94542 4.64833 8.28125 4.375 7.5 4.375C6.71875 4.375 6.05458 4.64833 5.5075 5.195C4.96083 5.74208 4.6875 6.40625 4.6875 7.1875C4.6875 7.96875 4.96083 8.63292 5.5075 9.18C6.05458 9.72667 6.71875 10 7.5 10ZM7.5 8.875C7.03125 8.875 6.63292 8.71083 6.305 8.3825C5.97667 8.05458 5.8125 7.65625 5.8125 7.1875C5.8125 6.71875 5.97667 6.32021 6.305 5.99187C6.63292 5.66396 7.03125 5.5 7.5 5.5C7.96875 5.5 8.36729 5.66396 8.69563 5.99187C9.02354 6.32021 9.1875 6.71875 9.1875 7.1875C9.1875 7.65625 9.02354 8.05458 8.69563 8.3825C8.36729 8.71083 7.96875 8.875 7.5 8.875V8.875ZM7.5 11.875C5.97917 11.875 4.59375 11.4504 3.34375 10.6012C2.09375 9.7525 1.1875 8.61458 0.625 7.1875C1.1875 5.76042 2.09375 4.62229 3.34375 3.77313C4.59375 2.92438 5.97917 2.5 7.5 2.5C9.02083 2.5 10.4062 2.92438 11.6562 3.77313C12.9062 4.62229 13.8125 5.76042 14.375 7.1875C13.8125 8.61458 12.9062 9.7525 11.6562 10.6012C10.4062 11.4504 9.02083 11.875 7.5 11.875ZM7.5 10.625C8.67708 10.625 9.75792 10.315 10.7425 9.695C11.7267 9.07542 12.4792 8.23958 13 7.1875C12.4792 6.13542 11.7267 5.29937 10.7425 4.67937C9.75792 4.05979 8.67708 3.75 7.5 3.75C6.32292 3.75 5.24208 4.05979 4.2575 4.67937C3.27333 5.29937 2.52083 6.13542 2 7.1875C2.52083 8.23958 3.27333 9.07542 4.2575 9.695C5.24208 10.315 6.32292 10.625 7.5 10.625Z" fill="#273A58" fill-opacity="0.35"/>
</svg>
