<svg width="15" height="15" viewBox="0 0 15 15" fill="none" xmlns="http://www.w3.org/2000/svg">
<g opacity="0.35">
<path d="M8.90625 11.7188C8.90612 11.9765 8.83513 12.2293 8.70104 12.4495C8.56696 12.6696 8.37494 12.8487 8.14596 12.9671C7.91699 13.0855 7.65987 13.1387 7.40271 13.1209C7.14555 13.1031 6.89824 13.0149 6.6878 12.866C6.47736 12.7171 6.3119 12.5133 6.20949 12.2767C6.10708 12.0401 6.07166 11.78 6.10711 11.5246C6.14256 11.2693 6.24751 11.0286 6.41049 10.8289C6.57347 10.6292 6.78821 10.4781 7.03125 10.3922V6.09375C7.03125 5.96943 7.08064 5.8502 7.16854 5.76229C7.25645 5.67439 7.37568 5.625 7.5 5.625C7.62432 5.625 7.74355 5.67439 7.83146 5.76229C7.91937 5.8502 7.96875 5.96943 7.96875 6.09375V10.3922C8.24304 10.4892 8.48051 10.6688 8.64841 10.9064C8.81632 11.144 8.9064 11.4278 8.90625 11.7188Z" fill="#273A58"/>
<path d="M5.15625 2.34375C5.15625 1.72215 5.40318 1.12601 5.84272 0.686468C6.28226 0.24693 6.8784 0 7.5 0C8.1216 0 8.71774 0.24693 9.15728 0.686468C9.59682 1.12601 9.84375 1.72215 9.84375 2.34375V9.42188C10.2959 9.88339 10.6018 10.4681 10.723 11.1028C10.8442 11.7374 10.7753 12.3937 10.525 12.9894C10.2747 13.5851 9.85414 14.0936 9.316 14.4512C8.77786 14.8088 8.14612 14.9995 7.5 14.9995C6.85388 14.9995 6.22214 14.8088 5.684 14.4512C5.14586 14.0936 4.72527 13.5851 4.47497 12.9894C4.22467 12.3937 4.1558 11.7374 4.27699 11.1028C4.39819 10.4681 4.70406 9.88339 5.15625 9.42188V2.34375ZM7.5 0.9375C7.12704 0.9375 6.76936 1.08566 6.50563 1.34938C6.24191 1.6131 6.09375 1.97079 6.09375 2.34375V9.83156L5.93719 9.97219C5.58335 10.2886 5.33393 10.705 5.22194 11.1663C5.10995 11.6276 5.14067 12.112 5.31003 12.5555C5.47939 12.9989 5.7794 13.3805 6.17038 13.6497C6.56135 13.9189 7.02485 14.063 7.49953 14.063C7.97422 14.063 8.43772 13.9189 8.82869 13.6497C9.21966 13.3805 9.51968 12.9989 9.68904 12.5555C9.85839 12.112 9.88911 11.6276 9.77712 11.1663C9.66513 10.705 9.41571 10.2886 9.06188 9.97219L8.90625 9.83156V2.34375C8.90625 1.97079 8.75809 1.6131 8.49437 1.34938C8.23065 1.08566 7.87296 0.9375 7.5 0.9375Z" fill="#273A58"/>
</g>
</svg>
