<svg width="15" height="15" viewBox="0 0 15 15" fill="none" xmlns="http://www.w3.org/2000/svg">
<path d="M7.5 13.4375C6.11458 13.4375 4.935 12.9558 3.96125 11.9925C2.98708 11.0287 2.5 9.86458 2.5 8.5C2.5 7.8125 2.62771 7.17437 2.88312 6.58562C3.13812 5.99729 3.5 5.47917 3.96875 5.03125L7.5 1.5625L11.0312 5.03125C11.5 5.47917 11.8621 5.99729 12.1175 6.58562C12.3725 7.17437 12.5 7.8125 12.5 8.5C12.5 9.86458 12.0131 11.0287 11.0394 11.9925C10.0652 12.9558 8.88542 13.4375 7.5 13.4375ZM7.5 12.1875C8.54167 12.1875 9.42708 11.8254 10.1562 11.1012C10.8854 10.3775 11.25 9.51042 11.25 8.5C11.25 8 11.1588 7.53375 10.9763 7.10125C10.7942 6.66917 10.5208 6.28125 10.1562 5.9375L7.5 3.3125L4.84375 5.9375C4.47917 6.28125 4.20583 6.66917 4.02375 7.10125C3.84125 7.53375 3.75 8 3.75 8.5C3.75 9.51042 4.11458 10.3775 4.84375 11.1012C5.57292 11.8254 6.45833 12.1875 7.5 12.1875Z" fill="#273A58" fill-opacity="0.35"/>
</svg>
