<svg width="13" height="13" viewBox="0 0 13 13" fill="none" xmlns="http://www.w3.org/2000/svg">
<path d="M7.125 2.4375C7.125 1.23125 6.14375 0.25 4.9375 0.25C3.66625 0.25 2.90625 1.20312 2.90625 2.125H4.15625C4.15625 1.86563 4.39875 1.5 4.9375 1.5C5.45438 1.5 5.875 1.92062 5.875 2.4375C5.875 2.95438 5.45438 3.375 4.9375 3.375H0.25V4.625H4.9375C6.14375 4.625 7.125 3.64375 7.125 2.4375ZM8.6875 8.375H4V9.625H8.6875C9.20438 9.625 9.625 10.0456 9.625 10.5625C9.625 11.0794 9.20438 11.5 8.6875 11.5C8.14875 11.5 7.90625 11.1344 7.90625 10.875H6.65625C6.65625 11.7969 7.41625 12.75 8.6875 12.75C9.89375 12.75 10.875 11.7687 10.875 10.5625C10.875 9.35625 9.89375 8.375 8.6875 8.375Z" fill="#273A58" fill-opacity="0.35"/>
<path d="M10.25 2.125C8.87125 2.125 7.75 3.24625 7.75 4.625H9C9 3.93562 9.56062 3.375 10.25 3.375C10.9394 3.375 11.5 3.93562 11.5 4.625C11.5 5.31438 10.9394 5.875 10.25 5.875H0.25V7.125H10.25C11.6288 7.125 12.75 6.00375 12.75 4.625C12.75 3.24625 11.6288 2.125 10.25 2.125ZM0.25 8.375H2.75V9.625H0.25V8.375Z" fill="#273A58" fill-opacity="0.35"/>
</svg>
