<!-- Generated by IcoMoon.io -->
<svg version="1.1" xmlns="http://www.w3.org/2000/svg" width="32" height="32" viewBox="0 0 32 32">
<title>liquid</title>
<path fill="#273a58" opacity="0.35" d="M16 28.667c-2.956 0-5.472-1.028-7.549-3.083-2.078-2.056-3.117-4.54-3.117-7.451 0-1.467 0.272-2.828 0.817-4.084s1.316-2.36 2.316-3.316l7.533-7.4 7.533 7.4c1 0.956 1.773 2.061 2.317 3.316s0.816 2.617 0.816 4.084c0 2.911-1.039 5.395-3.116 7.451-2.078 2.055-4.595 3.083-7.551 3.083zM16 26c2.222 0 4.111-0.772 5.667-2.317 1.556-1.544 2.333-3.394 2.333-5.549 0-1.067-0.195-2.061-0.584-2.984s-0.972-1.749-1.75-2.483l-5.667-5.6-5.667 5.6c-0.778 0.733-1.361 1.561-1.749 2.483s-0.584 1.917-0.584 2.984c0 2.156 0.778 4.005 2.333 5.549 1.556 1.545 3.444 2.317 5.667 2.317z"></path>
</svg>
