<!-- Generated by IcoMoon.io -->
<svg version="1.1" xmlns="http://www.w3.org/2000/svg" width="32" height="32" viewBox="0 0 32 32">
<title>temp</title>
<path fill="#273a58" opacity="0.35" d="M19 25c-0 0.55-0.152 1.089-0.438 1.559s-0.696 0.852-1.184 1.104-1.037 0.366-1.586 0.328c-0.549-0.038-1.076-0.226-1.525-0.544s-0.802-0.752-1.020-1.257c-0.218-0.505-0.294-1.060-0.218-1.604s0.3-1.058 0.647-1.484 0.806-0.748 1.324-0.932v-9.17c0-0.265 0.105-0.52 0.293-0.707s0.442-0.293 0.707-0.293c0.265 0 0.52 0.105 0.707 0.293s0.293 0.442 0.293 0.707v9.17c0.585 0.207 1.092 0.59 1.45 1.097s0.55 1.112 0.55 1.733z"></path>
<path fill="#273a58" opacity="0.35" d="M11 5c0-1.326 0.527-2.598 1.464-3.536s2.209-1.464 3.536-1.464c1.326 0 2.598 0.527 3.536 1.464s1.464 2.209 1.464 3.536v15.1c0.965 0.985 1.617 2.232 1.876 3.586s0.112 2.754-0.422 4.025-1.431 2.356-2.579 3.119c-1.148 0.763-2.496 1.17-3.874 1.17s-2.726-0.407-3.874-1.17c-1.148-0.763-2.045-1.848-2.579-3.119s-0.681-2.671-0.422-4.025c0.259-1.354 0.911-2.601 1.876-3.586v-15.1zM16 2c-0.796 0-1.559 0.316-2.121 0.879s-0.879 1.326-0.879 2.121v15.974l-0.334 0.3c-0.755 0.675-1.287 1.563-1.526 2.547s-0.173 2.017 0.188 2.964c0.361 0.946 1.001 1.76 1.835 2.334s1.823 0.882 2.836 0.882c1.013 0 2.001-0.307 2.836-0.882s1.474-1.388 1.835-2.334c0.361-0.946 0.427-1.98 0.188-2.964s-0.771-1.872-1.526-2.547l-0.332-0.3v-15.974c0-0.796-0.316-1.559-0.879-2.121s-1.326-0.879-2.121-0.879z"></path>
</svg>
