<!-- Generated by IcoMoon.io -->
<svg version="1.1" xmlns="http://www.w3.org/2000/svg" width="32" height="32" viewBox="0 0 32 32">
<title>visibl</title>
<path fill="#273a58" opacity="0.35" d="M16 21.333c1.667 0 3.084-0.583 4.251-1.749s1.749-2.584 1.749-4.251-0.583-3.084-1.749-4.251c-1.167-1.166-2.584-1.749-4.251-1.749s-3.084 0.583-4.251 1.749c-1.166 1.167-1.749 2.584-1.749 4.251s0.583 3.084 1.749 4.251c1.167 1.166 2.584 1.749 4.251 1.749zM16 18.933c-1 0-1.85-0.35-2.549-1.051s-1.051-1.549-1.051-2.549 0.35-1.85 1.051-2.551c0.7-0.7 1.549-1.049 2.549-1.049s1.85 0.35 2.551 1.049c0.7 0.7 1.049 1.551 1.049 2.551s-0.35 1.85-1.049 2.549c-0.7 0.7-1.551 1.051-2.551 1.051v0zM16 25.333c-3.244 0-6.2-0.906-8.867-2.717-2.667-1.811-4.6-4.238-5.8-7.283 1.2-3.044 3.133-5.472 5.8-7.284s5.622-2.716 8.867-2.716 6.2 0.905 8.867 2.716c2.667 1.812 4.6 4.24 5.8 7.284-1.2 3.044-3.133 5.472-5.8 7.283-2.667 1.812-5.622 2.717-8.867 2.717zM16 22.667c2.511 0 4.817-0.661 6.917-1.984s3.705-3.105 4.816-5.349c-1.111-2.244-2.716-4.028-4.816-5.351s-4.406-1.983-6.917-1.983-4.817 0.661-6.917 1.983c-2.1 1.323-3.705 3.106-4.816 5.351 1.111 2.244 2.716 4.028 4.816 5.349s4.406 1.984 6.917 1.984z"></path>
</svg>
