<!-- Generated by IcoMoon.io -->
<svg version="1.1" xmlns="http://www.w3.org/2000/svg" width="32" height="32" viewBox="0 0 32 32">
<title>wind</title>
<path fill="#273a58" opacity="0.35" d="M17.538 6c0-2.969-2.415-5.385-5.385-5.385-3.129 0-5 2.346-5 4.615h3.077c0-0.638 0.597-1.538 1.923-1.538 1.272 0 2.308 1.035 2.308 2.308s-1.035 2.308-2.308 2.308h-11.538v3.077h11.538c2.969 0 5.385-2.415 5.385-5.385zM21.385 20.615h-11.538v3.077h11.538c1.272 0 2.308 1.035 2.308 2.308s-1.035 2.308-2.308 2.308c-1.326 0-1.923-0.9-1.923-1.538h-3.077c0 2.269 1.871 4.615 5 4.615 2.969 0 5.385-2.416 5.385-5.385s-2.415-5.385-5.385-5.385z"></path>
<path fill="#273a58" opacity="0.35" d="M25.231 5.231c-3.394 0-6.154 2.76-6.154 6.154h3.077c0-1.697 1.38-3.077 3.077-3.077s3.077 1.38 3.077 3.077-1.38 3.077-3.077 3.077h-24.615v3.077h24.615c3.394 0 6.154-2.76 6.154-6.154s-2.76-6.154-6.154-6.154zM0.615 20.615h6.154v3.077h-6.154v-3.077z"></path>
</svg>
