<svg width="228" height="238" viewBox="0 0 228 238" fill="none" xmlns="http://www.w3.org/2000/svg">
<g filter="url(#filter0_f_3_1370)">
<ellipse cx="102.115" cy="89.1325" rx="45.1145" ry="45.1325" fill="#FFC701" fill-opacity="0.5"/>
</g>
<path d="M144.75 90.6123C144.75 114.169 125.661 133.265 102.115 133.265C78.568 133.265 59.4791 114.169 59.4791 90.6123C59.4791 67.0555 78.568 47.9595 102.115 47.9595C125.661 47.9595 144.75 67.0555 144.75 90.6123Z" fill="url(#paint0_linear_3_1370)" stroke="url(#paint1_linear_3_1370)" stroke-width="2"/>
<mask id="mask0_3_1370" style="mask-type:alpha" maskUnits="userSpaceOnUse" x="58" y="71" width="88" height="64">
<path d="M145.75 90.6122C145.75 114.721 126.214 134.265 102.115 134.265C78.0154 134.265 58.4791 114.721 58.4791 90.6122C58.4791 66.5035 74.6873 72.1153 98.7864 72.1153C122.886 72.1153 145.75 66.5035 145.75 90.6122Z" fill="url(#paint2_linear_3_1370)"/>
</mask>
<g mask="url(#mask0_3_1370)">
<g filter="url(#filter1_f_3_1370)">
<path fill-rule="evenodd" clip-rule="evenodd" d="M168.677 170.519C168.677 188.09 154.439 202.334 136.875 202.334C136.752 202.334 136.629 202.333 136.506 202.332V202.334H24.8283L24.8294 202.332C24.7059 202.334 24.5822 202.334 24.4583 202.334C6.89449 202.334 -7.34378 188.091 -7.34378 170.52C-7.34378 152.949 6.89449 138.705 24.4583 138.705C39.5977 138.705 52.2662 149.288 55.4752 163.462L66.245 149.802L99.8961 138.704H136.506V138.706C136.629 138.705 136.752 138.704 136.875 138.704C154.439 138.704 168.677 152.948 168.677 170.519Z" fill="#E18700"/>
</g>
</g>
<g filter="url(#filter2_bd_3_1370)">
<mask id="path-5-inside-1_3_1370" fill="white">
<path fill-rule="evenodd" clip-rule="evenodd" d="M175.749 172.998C175.838 173 175.928 173 176.017 173C188.71 173 199 162.706 199 150.008C199 137.31 188.71 127.016 176.017 127.016C175.928 127.016 175.838 127.016 175.749 127.017V127.016H169.812C170.027 125.442 170.137 123.835 170.137 122.203C170.137 102.713 154.344 86.9127 134.861 86.9127C115.379 86.9127 99.5849 102.713 99.5849 122.203C99.5849 124.042 99.7256 125.848 99.9967 127.612C98.319 127.222 96.5709 127.016 94.7747 127.016C82.0815 127.016 71.7916 137.31 71.7916 150.008C71.7916 162.706 82.0815 173 94.7747 173C94.8641 173 94.9534 173 95.0427 172.998L95.0414 173H175.749V172.998Z"/>
</mask>
<path fill-rule="evenodd" clip-rule="evenodd" d="M175.749 172.998C175.838 173 175.928 173 176.017 173C188.71 173 199 162.706 199 150.008C199 137.31 188.71 127.016 176.017 127.016C175.928 127.016 175.838 127.016 175.749 127.017V127.016H169.812C170.027 125.442 170.137 123.835 170.137 122.203C170.137 102.713 154.344 86.9127 134.861 86.9127C115.379 86.9127 99.5849 102.713 99.5849 122.203C99.5849 124.042 99.7256 125.848 99.9967 127.612C98.319 127.222 96.5709 127.016 94.7747 127.016C82.0815 127.016 71.7916 137.31 71.7916 150.008C71.7916 162.706 82.0815 173 94.7747 173C94.8641 173 94.9534 173 95.0427 172.998L95.0414 173H175.749V172.998Z" fill="url(#paint3_linear_3_1370)" shape-rendering="crispEdges"/>
<path d="M175.749 172.998L175.772 170.999C175.238 170.993 174.723 171.201 174.343 171.576C173.963 171.952 173.749 172.464 173.749 172.998H175.749ZM175.749 127.017H173.749C173.749 127.552 173.963 128.064 174.343 128.439C174.723 128.815 175.238 129.023 175.772 129.017L175.749 127.017ZM175.749 127.016H177.749C177.749 125.911 176.854 125.016 175.749 125.016V127.016ZM169.812 127.016L167.831 126.746C167.753 127.318 167.926 127.896 168.305 128.331C168.685 128.766 169.235 129.016 169.812 129.016V127.016ZM99.9967 127.612L99.5439 129.56C100.19 129.71 100.869 129.53 101.356 129.078C101.843 128.627 102.074 127.964 101.973 127.308L99.9967 127.612ZM95.0427 172.998L96.6141 174.236C97.0905 173.631 97.1771 172.806 96.8368 172.115C96.4966 171.424 95.7898 170.99 95.0197 170.999L95.0427 172.998ZM95.0414 173L93.47 171.763C92.9962 172.365 92.9077 173.184 93.2422 173.873C93.5767 174.563 94.2754 175 95.0414 175V173ZM175.749 173V175C176.854 175 177.749 174.105 177.749 173H175.749ZM175.726 174.998C175.823 174.999 175.92 175 176.017 175V171C175.935 171 175.854 171 175.772 170.999L175.726 174.998ZM176.017 175C189.815 175 201 163.81 201 150.008H197C197 161.602 187.605 171 176.017 171V175ZM201 150.008C201 136.206 189.815 125.016 176.017 125.016V129.016C187.605 129.016 197 138.413 197 150.008H201ZM176.017 125.016C175.92 125.016 175.823 125.016 175.726 125.017L175.772 129.017C175.854 129.016 175.935 129.016 176.017 129.016V125.016ZM173.749 127.016V127.017H177.749V127.016H173.749ZM169.812 129.016H175.749V125.016H169.812V129.016ZM171.794 127.286C172.021 125.623 172.137 123.926 172.137 122.203H168.137C168.137 123.745 168.033 125.261 167.831 126.746L171.794 127.286ZM172.137 122.203C172.137 101.609 155.449 84.9127 134.861 84.9127V88.9127C153.238 88.9127 168.137 103.817 168.137 122.203H172.137ZM134.861 84.9127C114.273 84.9127 97.5849 101.609 97.5849 122.203H101.585C101.585 103.817 116.484 88.9127 134.861 88.9127V84.9127ZM97.5849 122.203C97.5849 124.144 97.7334 126.052 98.0199 127.916L101.973 127.308C101.718 125.645 101.585 123.94 101.585 122.203H97.5849ZM100.449 125.664C98.6244 125.239 96.7244 125.016 94.7747 125.016V129.016C96.4174 129.016 98.0136 129.204 99.5439 129.56L100.449 125.664ZM94.7747 125.016C80.9762 125.016 69.7916 136.206 69.7916 150.008H73.7916C73.7916 138.413 83.1868 129.016 94.7747 129.016V125.016ZM69.7916 150.008C69.7916 163.81 80.9762 175 94.7747 175V171C83.1868 171 73.7916 161.602 73.7916 150.008H69.7916ZM94.7747 175C94.8717 175 94.9687 174.999 95.0656 174.998L95.0197 170.999C94.9382 171 94.8565 171 94.7747 171V175ZM96.6129 174.237L96.6141 174.236L93.4712 171.761L93.47 171.763L96.6129 174.237ZM175.749 171H95.0414V175H175.749V171ZM173.749 172.998V173H177.749V172.998H173.749Z" fill="url(#paint4_linear_3_1370)" mask="url(#path-5-inside-1_3_1370)"/>
</g>
<defs>
<filter id="filter0_f_3_1370" x="13" y="0" width="178.229" height="178.265" filterUnits="userSpaceOnUse" color-interpolation-filters="sRGB">
<feFlood flood-opacity="0" result="BackgroundImageFix"/>
<feBlend mode="normal" in="SourceGraphic" in2="BackgroundImageFix" result="shape"/>
<feGaussianBlur stdDeviation="22" result="effect1_foregroundBlur_3_1370"/>
</filter>
<filter id="filter1_f_3_1370" x="-21.3438" y="124.704" width="204.021" height="91.6302" filterUnits="userSpaceOnUse" color-interpolation-filters="sRGB">
<feFlood flood-opacity="0" result="BackgroundImageFix"/>
<feBlend mode="normal" in="SourceGraphic" in2="BackgroundImageFix" result="shape"/>
<feGaussianBlur stdDeviation="7" result="effect1_foregroundBlur_3_1370"/>
</filter>
<filter id="filter2_bd_3_1370" x="0.791641" y="51.9127" width="227.208" height="186.087" filterUnits="userSpaceOnUse" color-interpolation-filters="sRGB">
<feFlood flood-opacity="0" result="BackgroundImageFix"/>
<feGaussianBlur in="BackgroundImageFix" stdDeviation="7"/>
<feComposite in2="SourceAlpha" operator="in" result="effect1_backgroundBlur_3_1370"/>
<feColorMatrix in="SourceAlpha" type="matrix" values="0 0 0 0 0 0 0 0 0 0 0 0 0 0 0 0 0 0 127 0" result="hardAlpha"/>
<feOffset dx="-21" dy="15"/>
<feGaussianBlur stdDeviation="25"/>
<feComposite in2="hardAlpha" operator="out"/>
<feColorMatrix type="matrix" values="0 0 0 0 0.113438 0 0 0 0 0.148981 0 0 0 0 0.275 0 0 0 0.25 0"/>
<feBlend mode="normal" in2="effect1_backgroundBlur_3_1370" result="effect2_dropShadow_3_1370"/>
<feBlend mode="normal" in="SourceGraphic" in2="effect2_dropShadow_3_1370" result="shape"/>
</filter>
<linearGradient id="paint0_linear_3_1370" x1="102.115" y1="46.9595" x2="102.115" y2="134.265" gradientUnits="userSpaceOnUse">
<stop stop-color="#FFE600"/>
<stop offset="1" stop-color="#FF7A00"/>
</linearGradient>
<linearGradient id="paint1_linear_3_1370" x1="102.115" y1="46.9595" x2="102.115" y2="134.265" gradientUnits="userSpaceOnUse">
<stop stop-color="white"/>
<stop offset="1" stop-color="white" stop-opacity="0"/>
</linearGradient>
<linearGradient id="paint2_linear_3_1370" x1="102.115" y1="46.9594" x2="102.115" y2="134.265" gradientUnits="userSpaceOnUse">
<stop stop-color="#FFD600"/>
<stop offset="1" stop-color="#FF7A00"/>
</linearGradient>
<linearGradient id="paint3_linear_3_1370" x1="141.312" y1="89.5023" x2="141.313" y2="182.727" gradientUnits="userSpaceOnUse">
<stop stop-color="white"/>
<stop offset="1" stop-color="white" stop-opacity="0"/>
</linearGradient>
<linearGradient id="paint4_linear_3_1370" x1="135.396" y1="86.9127" x2="135.396" y2="173" gradientUnits="userSpaceOnUse">
<stop stop-color="white"/>
<stop offset="1" stop-color="white" stop-opacity="0"/>
</linearGradient>
</defs>
</svg>
