<svg width="228" height="238" fill="none" xmlns="http://www.w3.org/2000/svg"><g filter="url(#a)"><ellipse cx="102.115" cy="89.132" rx="45.114" ry="45.133" fill="#FFC701" fill-opacity=".5"/></g><path d="M144.75 90.612c0 23.557-19.089 42.653-42.635 42.653-23.547 0-42.636-19.096-42.636-42.653 0-23.556 19.089-42.652 42.636-42.652 23.546 0 42.635 19.095 42.635 42.652Z" fill="url(#b)" stroke="url(#c)" stroke-width="2"/><mask id="e" style="mask-type:alpha" maskUnits="userSpaceOnUse" x="58" y="71" width="88" height="64"><path d="M145.75 90.612c0 24.109-19.536 43.653-43.635 43.653-24.1 0-43.636-19.544-43.636-43.653 0-24.108 16.208-18.497 40.307-18.497 24.1 0 46.964-5.611 46.964 18.497Z" fill="url(#d)"/></mask><g filter="url(#f)" mask="url(#e)"><path fill-rule="evenodd" clip-rule="evenodd" d="M168.677 170.519c0 17.571-14.238 31.815-31.802 31.815l-.37-.002v.002H24.828l.001-.002c-.123.002-.247.002-.37.002-17.565 0-31.803-14.243-31.803-31.814 0-17.571 14.238-31.815 31.802-31.815 15.14 0 27.808 10.583 31.017 24.757l10.77-13.66 33.651-11.098h36.609v.002l.37-.002c17.564 0 31.802 14.244 31.802 31.815Z" fill="#E18700"/></g><g filter="url(#g)"><mask id="j" fill="#fff"><path fill-rule="evenodd" clip-rule="evenodd" d="m175.749 172.998.268.002C188.71 173 199 162.706 199 150.008c0-12.699-10.29-22.993-22.983-22.993l-.268.002v-.002h-5.937c.215-1.573.326-3.18.326-4.812 0-19.49-15.794-35.29-35.277-35.29-19.482 0-35.276 15.8-35.276 35.29 0 1.839.14 3.645.412 5.409a23.039 23.039 0 0 0-5.222-.597c-12.693 0-22.983 10.294-22.983 22.993 0 12.698 10.29 22.992 22.983 22.992l.268-.002-.001.002h80.707v-.002Z"/></mask><path fill-rule="evenodd" clip-rule="evenodd" d="m175.749 172.998.268.002C188.71 173 199 162.706 199 150.008c0-12.699-10.29-22.993-22.983-22.993l-.268.002v-.002h-5.937c.215-1.573.326-3.18.326-4.812 0-19.49-15.794-35.29-35.277-35.29-19.482 0-35.276 15.8-35.276 35.29 0 1.839.14 3.645.412 5.409a23.039 23.039 0 0 0-5.222-.597c-12.693 0-22.983 10.294-22.983 22.993 0 12.698 10.29 22.992 22.983 22.992l.268-.002-.001.002h80.707v-.002Z" fill="url(#h)" shape-rendering="crispEdges"/><path d="m175.749 172.998.023-1.999a2 2 0 0 0-2.023 1.999h2Zm0-45.981h-2a1.997 1.997 0 0 0 2.023 2l-.023-2Zm0-.001h2a2 2 0 0 0-2-2v2Zm-5.937 0-1.981-.27a2.002 2.002 0 0 0 1.981 2.27v-2Zm-69.815.596-.453 1.948a1.999 1.999 0 0 0 2.429-2.252l-1.976.304Zm-4.954 45.386 1.571 1.238a2 2 0 0 0-1.594-3.237l.023 1.999Zm-.002.002-1.571-1.237A2 2 0 0 0 95.041 175v-2Zm80.708 0v2a2 2 0 0 0 2-2h-2Zm-.023 1.998.291.002v-4l-.245-.001-.046 3.999Zm.291.002C189.815 175 201 163.81 201 150.008h-4c0 11.594-9.395 20.992-20.983 20.992v4ZM201 150.008c0-13.802-11.185-24.992-24.983-24.992v4c11.588 0 20.983 9.397 20.983 20.992h4Zm-24.983-24.992-.291.001.046 4 .245-.001v-4Zm-2.268 2v.001h4v-.001h-4Zm-3.937 2h5.937v-4h-5.937v4Zm1.982-1.73c.227-1.663.343-3.36.343-5.083h-4c0 1.542-.104 3.058-.306 4.543l3.963.54Zm.343-5.083c0-20.594-16.688-37.29-37.276-37.29v4c18.377 0 33.276 14.904 33.276 33.29h4Zm-37.276-37.29c-20.588 0-37.276 16.696-37.276 37.29h4c0-18.386 14.899-33.29 33.276-33.29v-4Zm-37.276 37.29c0 1.941.148 3.849.435 5.713l3.953-.608a33.667 33.667 0 0 1-.388-5.105h-4Zm2.864 3.461a24.99 24.99 0 0 0-5.674-.648v4c1.642 0 3.239.188 4.769.544l.905-3.896Zm-5.674-.648c-13.799 0-24.983 11.19-24.983 24.992h4c0-11.595 9.395-20.992 20.983-20.992v-4Zm-24.983 24.992C69.792 163.81 80.976 175 94.775 175v-4c-11.588 0-20.983-9.398-20.983-20.992h-4ZM94.775 175l.29-.002-.045-3.999-.245.001v4Zm1.838-.763.001-.001-3.143-2.475-.001.002 3.143 2.474ZM175.749 171H95.041v4h80.708v-4Zm-2 1.998V173h4v-.002h-4Z" fill="url(#i)" mask="url(#j)"/></g><defs><linearGradient id="b" x1="102.115" y1="46.959" x2="102.115" y2="134.265" gradientUnits="userSpaceOnUse"><stop stop-color="#FFE600"/><stop offset="1" stop-color="#FF7A00"/></linearGradient><linearGradient id="c" x1="102.115" y1="46.959" x2="102.115" y2="134.265" gradientUnits="userSpaceOnUse"><stop stop-color="#fff"/><stop offset="1" stop-color="#fff" stop-opacity="0"/></linearGradient><linearGradient id="d" x1="102.115" y1="46.959" x2="102.115" y2="134.265" gradientUnits="userSpaceOnUse"><stop stop-color="#FFD600"/><stop offset="1" stop-color="#FF7A00"/></linearGradient><linearGradient id="h" x1="141.312" y1="89.502" x2="141.313" y2="182.727" gradientUnits="userSpaceOnUse"><stop stop-color="#fff"/><stop offset="1" stop-color="#fff" stop-opacity="0"/></linearGradient><linearGradient id="i" x1="135.396" y1="86.913" x2="135.396" y2="173" gradientUnits="userSpaceOnUse"><stop stop-color="#fff"/><stop offset="1" stop-color="#fff" stop-opacity="0"/></linearGradient><filter id="a" x="13" y="0" width="178.229" height="178.265" filterUnits="userSpaceOnUse" color-interpolation-filters="sRGB"><feFlood flood-opacity="0" result="BackgroundImageFix"/><feBlend in="SourceGraphic" in2="BackgroundImageFix" result="shape"/><feGaussianBlur stdDeviation="22" result="effect1_foregroundBlur_3_1370"/></filter><filter id="f" x="-21.344" y="124.704" width="204.021" height="91.63" filterUnits="userSpaceOnUse" color-interpolation-filters="sRGB"><feFlood flood-opacity="0" result="BackgroundImageFix"/><feBlend in="SourceGraphic" in2="BackgroundImageFix" result="shape"/><feGaussianBlur stdDeviation="7" result="effect1_foregroundBlur_3_1370"/></filter><filter id="g" x=".792" y="51.913" width="227.208" height="186.087" filterUnits="userSpaceOnUse" color-interpolation-filters="sRGB"><feFlood flood-opacity="0" result="BackgroundImageFix"/><feGaussianBlur in="BackgroundImageFix" stdDeviation="7"/><feComposite in2="SourceAlpha" operator="in" result="effect1_backgroundBlur_3_1370"/><feColorMatrix in="SourceAlpha" values="0 0 0 0 0 0 0 0 0 0 0 0 0 0 0 0 0 0 127 0" result="hardAlpha"/><feOffset dx="-21" dy="15"/><feGaussianBlur stdDeviation="25"/><feComposite in2="hardAlpha" operator="out"/><feColorMatrix values="0 0 0 0 0.113438 0 0 0 0 0.148981 0 0 0 0 0.275 0 0 0 0.25 0"/><feBlend in2="effect1_backgroundBlur_3_1370" result="effect2_dropShadow_3_1370"/><feBlend in="SourceGraphic" in2="effect2_dropShadow_3_1370" result="shape"/></filter></defs></svg>