<svg width="180" height="180" viewBox="0 0 180 180" fill="none" xmlns="http://www.w3.org/2000/svg">
<g clip-path="url(#clip0_20_694)">
<g filter="url(#filter0_f_20_694)">
<ellipse cx="64.1145" cy="71.1325" rx="45.1145" ry="45.1325" fill="#FFC701" fill-opacity="0.5"/>
</g>
<path d="M106.75 72.6123C106.75 96.1692 87.6611 115.265 64.1146 115.265C40.568 115.265 21.4791 96.1692 21.4791 72.6123C21.4791 49.0555 40.568 29.9595 64.1146 29.9595C87.6611 29.9595 106.75 49.0555 106.75 72.6123Z" fill="url(#paint0_linear_20_694)" stroke="url(#paint1_linear_20_694)" stroke-width="2"/>
<mask id="mask0_20_694" style="mask-type:alpha" maskUnits="userSpaceOnUse" x="20" y="53" width="88" height="64">
<path d="M107.75 72.6122C107.75 96.721 88.2138 116.265 64.1146 116.265C40.0154 116.265 20.4791 96.721 20.4791 72.6122C20.4791 48.5035 36.6873 54.1153 60.7864 54.1153C84.8856 54.1153 107.75 48.5035 107.75 72.6122Z" fill="url(#paint2_linear_20_694)"/>
</mask>
<g mask="url(#mask0_20_694)">
<g filter="url(#filter1_f_20_694)">
<path fill-rule="evenodd" clip-rule="evenodd" d="M130.677 152.519C130.677 170.09 116.439 184.334 98.8752 184.334C98.7518 184.334 98.6286 184.333 98.5055 184.332V184.334H-13.1717L-13.1706 184.332C-13.2941 184.334 -13.4178 184.334 -13.5417 184.334C-31.1055 184.334 -45.3438 170.091 -45.3438 152.52C-45.3438 134.949 -31.1055 120.705 -13.5417 120.705C1.59768 120.705 14.2663 131.288 17.4752 145.462L28.245 131.802L61.8961 120.704H98.5055V120.706C98.6286 120.705 98.7518 120.704 98.8752 120.704C116.439 120.704 130.677 134.948 130.677 152.519Z" fill="#E18700"/>
</g>
</g>
<g filter="url(#filter2_bd_20_694)">
<mask id="path-5-inside-1_20_694" fill="white">
<path fill-rule="evenodd" clip-rule="evenodd" d="M137.749 154.998C137.838 154.999 137.928 155 138.017 155C150.71 155 161 144.706 161 132.008C161 119.31 150.71 109.016 138.017 109.016C137.928 109.016 137.838 109.016 137.749 109.017V109.016H131.812C132.027 107.442 132.137 105.835 132.137 104.203C132.137 84.7127 116.344 68.9127 96.8612 68.9127C77.3787 68.9127 61.5849 84.7127 61.5849 104.203C61.5849 106.042 61.7256 107.848 61.9967 109.612C60.319 109.222 58.5709 109.016 56.7747 109.016C44.0815 109.016 33.7916 119.31 33.7916 132.008C33.7916 144.706 44.0815 155 56.7747 155C56.8641 155 56.9534 154.999 57.0427 154.998L57.0414 155H137.749V154.998Z"/>
</mask>
<path fill-rule="evenodd" clip-rule="evenodd" d="M137.749 154.998C137.838 154.999 137.928 155 138.017 155C150.71 155 161 144.706 161 132.008C161 119.31 150.71 109.016 138.017 109.016C137.928 109.016 137.838 109.016 137.749 109.017V109.016H131.812C132.027 107.442 132.137 105.835 132.137 104.203C132.137 84.7127 116.344 68.9127 96.8612 68.9127C77.3787 68.9127 61.5849 84.7127 61.5849 104.203C61.5849 106.042 61.7256 107.848 61.9967 109.612C60.319 109.222 58.5709 109.016 56.7747 109.016C44.0815 109.016 33.7916 119.31 33.7916 132.008C33.7916 144.706 44.0815 155 56.7747 155C56.8641 155 56.9534 154.999 57.0427 154.998L57.0414 155H137.749V154.998Z" fill="url(#paint3_linear_20_694)" shape-rendering="crispEdges"/>
<path d="M137.749 154.998L137.772 152.999C137.238 152.993 136.723 153.201 136.343 153.576C135.963 153.952 135.749 154.464 135.749 154.998H137.749ZM137.749 109.017H135.749C135.749 109.552 135.963 110.064 136.343 110.439C136.723 110.815 137.238 111.023 137.772 111.017L137.749 109.017ZM137.749 109.016H139.749C139.749 107.911 138.854 107.016 137.749 107.016V109.016ZM131.812 109.016L129.831 108.746C129.753 109.318 129.926 109.896 130.305 110.331C130.685 110.766 131.235 111.016 131.812 111.016V109.016ZM61.9967 109.612L61.5439 111.56C62.1904 111.71 62.8694 111.53 63.3563 111.078C63.8431 110.627 64.0743 109.964 63.9734 109.308L61.9967 109.612ZM57.0427 154.998L58.6141 156.236C59.0905 155.631 59.1771 154.806 58.8368 154.115C58.4966 153.424 57.7898 152.99 57.0197 152.999L57.0427 154.998ZM57.0414 155L55.47 153.763C54.9962 154.365 54.9077 155.184 55.2422 155.873C55.5767 156.562 56.2754 157 57.0414 157V155ZM137.749 155V157C138.854 157 139.749 156.105 139.749 155H137.749ZM137.726 156.998C137.823 156.999 137.92 157 138.017 157V153C137.935 153 137.854 153 137.772 152.999L137.726 156.998ZM138.017 157C151.815 157 163 145.81 163 132.008H159C159 143.602 149.605 153 138.017 153V157ZM163 132.008C163 118.206 151.815 107.016 138.017 107.016V111.016C149.605 111.016 159 120.413 159 132.008H163ZM138.017 107.016C137.92 107.016 137.823 107.016 137.726 107.017L137.772 111.017C137.854 111.016 137.935 111.016 138.017 111.016V107.016ZM135.749 109.016V109.017H139.749V109.016H135.749ZM131.812 111.016H137.749V107.016H131.812V111.016ZM133.794 109.286C134.021 107.623 134.137 105.926 134.137 104.203H130.137C130.137 105.745 130.033 107.261 129.831 108.746L133.794 109.286ZM134.137 104.203C134.137 83.6089 117.449 66.9127 96.8612 66.9127V70.9127C115.238 70.9127 130.137 85.8165 130.137 104.203H134.137ZM96.8612 66.9127C76.2733 66.9127 59.5849 83.6089 59.5849 104.203H63.5849C63.5849 85.8165 78.484 70.9127 96.8612 70.9127V66.9127ZM59.5849 104.203C59.5849 106.144 59.7334 108.052 60.0199 109.916L63.9734 109.308C63.7178 107.645 63.5849 105.94 63.5849 104.203H59.5849ZM62.4494 107.664C60.6244 107.239 58.7244 107.016 56.7747 107.016V111.016C58.4174 111.016 60.0136 111.204 61.5439 111.56L62.4494 107.664ZM56.7747 107.016C42.9762 107.016 31.7916 118.206 31.7916 132.008H35.7916C35.7916 120.413 45.1868 111.016 56.7747 111.016V107.016ZM31.7916 132.008C31.7916 145.81 42.9762 157 56.7747 157V153C45.1868 153 35.7916 143.602 35.7916 132.008H31.7916ZM56.7747 157C56.8717 157 56.9687 156.999 57.0656 156.998L57.0197 152.999C56.9382 153 56.8565 153 56.7747 153V157ZM58.6129 156.237L58.6141 156.236L55.4712 153.761L55.47 153.763L58.6129 156.237ZM137.749 153H57.0414V157H137.749V153ZM135.749 154.998V155H139.749V154.998H135.749Z" fill="url(#paint4_linear_20_694)" mask="url(#path-5-inside-1_20_694)"/>
</g>
</g>
<defs>
<filter id="filter0_f_20_694" x="-11" y="-4" width="150.229" height="150.265" filterUnits="userSpaceOnUse" color-interpolation-filters="sRGB">
<feFlood flood-opacity="0" result="BackgroundImageFix"/>
<feBlend mode="normal" in="SourceGraphic" in2="BackgroundImageFix" result="shape"/>
<feGaussianBlur stdDeviation="15" result="effect1_foregroundBlur_20_694"/>
</filter>
<filter id="filter1_f_20_694" x="-59.3438" y="106.704" width="204.021" height="91.6302" filterUnits="userSpaceOnUse" color-interpolation-filters="sRGB">
<feFlood flood-opacity="0" result="BackgroundImageFix"/>
<feBlend mode="normal" in="SourceGraphic" in2="BackgroundImageFix" result="shape"/>
<feGaussianBlur stdDeviation="7" result="effect1_foregroundBlur_20_694"/>
</filter>
<filter id="filter2_bd_20_694" x="8.79164" y="54.9127" width="167.208" height="133.087" filterUnits="userSpaceOnUse" color-interpolation-filters="sRGB">
<feFlood flood-opacity="0" result="BackgroundImageFix"/>
<feGaussianBlur in="BackgroundImageFix" stdDeviation="7"/>
<feComposite in2="SourceAlpha" operator="in" result="effect1_backgroundBlur_20_694"/>
<feColorMatrix in="SourceAlpha" type="matrix" values="0 0 0 0 0 0 0 0 0 0 0 0 0 0 0 0 0 0 127 0" result="hardAlpha"/>
<feOffset dx="-5" dy="13"/>
<feGaussianBlur stdDeviation="10"/>
<feComposite in2="hardAlpha" operator="out"/>
<feColorMatrix type="matrix" values="0 0 0 0 0.113438 0 0 0 0 0.148981 0 0 0 0 0.275 0 0 0 0.09 0"/>
<feBlend mode="normal" in2="effect1_backgroundBlur_20_694" result="effect2_dropShadow_20_694"/>
<feBlend mode="normal" in="SourceGraphic" in2="effect2_dropShadow_20_694" result="shape"/>
</filter>
<linearGradient id="paint0_linear_20_694" x1="64.1146" y1="28.9595" x2="64.1146" y2="116.265" gradientUnits="userSpaceOnUse">
<stop stop-color="#FFE600"/>
<stop offset="1" stop-color="#FF7A00"/>
</linearGradient>
<linearGradient id="paint1_linear_20_694" x1="64.1146" y1="28.9595" x2="64.1146" y2="116.265" gradientUnits="userSpaceOnUse">
<stop stop-color="white"/>
<stop offset="1" stop-color="white" stop-opacity="0"/>
</linearGradient>
<linearGradient id="paint2_linear_20_694" x1="64.1146" y1="28.9594" x2="64.1146" y2="116.265" gradientUnits="userSpaceOnUse">
<stop stop-color="#FFD600"/>
<stop offset="1" stop-color="#FF7A00"/>
</linearGradient>
<linearGradient id="paint3_linear_20_694" x1="103.312" y1="71.5023" x2="103.313" y2="164.727" gradientUnits="userSpaceOnUse">
<stop stop-color="white"/>
<stop offset="1" stop-color="white" stop-opacity="0"/>
</linearGradient>
<linearGradient id="paint4_linear_20_694" x1="97.3958" y1="68.9127" x2="97.3958" y2="155" gradientUnits="userSpaceOnUse">
<stop stop-color="white"/>
<stop offset="1" stop-color="white" stop-opacity="0"/>
</linearGradient>
<clipPath id="clip0_20_694">
<rect width="180" height="180" fill="white"/>
</clipPath>
</defs>
</svg>
